G04 #@! TF.GenerationSoftware,KiCad,Pcbnew,(5.1.5)-3*
G04 #@! TF.CreationDate,2020-06-17T14:59:32+02:00*
G04 #@! TF.ProjectId,Tuerschild,54756572-7363-4686-996c-642e6b696361,rev?*
G04 #@! TF.SameCoordinates,Original*
G04 #@! TF.FileFunction,Legend,Top*
G04 #@! TF.FilePolarity,Positive*
%FSLAX46Y46*%
G04 Gerber Fmt 4.6, Leading zero omitted, Abs format (unit mm)*
G04 Created by KiCad (PCBNEW (5.1.5)-3) date 2020-06-17 14:59:32*
%MOMM*%
%LPD*%
G04 APERTURE LIST*
%ADD10C,0.150000*%
%ADD11C,0.120000*%
G04 APERTURE END LIST*
D10*
X195580000Y-125095000D02*
X195580000Y-125476000D01*
X117475000Y-125349000D02*
X117475000Y-125730000D01*
X147955000Y-125349000D02*
X147955000Y-125730000D01*
X147955000Y-61849000D02*
X147955000Y-64770000D01*
X195580000Y-61849000D02*
X195580000Y-64897000D01*
X195580000Y-125730000D02*
X195580000Y-125476000D01*
X195580000Y-125730000D02*
X147955000Y-125730000D01*
X195580000Y-64770000D02*
X195580000Y-125095000D01*
X147955000Y-61849000D02*
X195580000Y-61849000D01*
X122444571Y-124499666D02*
X122920761Y-124499666D01*
X122349333Y-124785380D02*
X122682666Y-123785380D01*
X123016000Y-124785380D01*
X123349333Y-124785380D02*
X123349333Y-123785380D01*
X123444571Y-124404428D02*
X123730285Y-124785380D01*
X123730285Y-124118714D02*
X123349333Y-124499666D01*
X124158857Y-124785380D02*
X124158857Y-123785380D01*
X124254095Y-124404428D02*
X124539809Y-124785380D01*
X124539809Y-124118714D02*
X124158857Y-124499666D01*
X125396952Y-124118714D02*
X125396952Y-124785380D01*
X124968380Y-124118714D02*
X124968380Y-124642523D01*
X125016000Y-124737761D01*
X125111238Y-124785380D01*
X125254095Y-124785380D01*
X125349333Y-124737761D01*
X125396952Y-124690142D01*
X126587428Y-124499666D02*
X127063619Y-124499666D01*
X126492190Y-124785380D02*
X126825523Y-123785380D01*
X127158857Y-124785380D01*
X127492190Y-124118714D02*
X127492190Y-124785380D01*
X127492190Y-124213952D02*
X127539809Y-124166333D01*
X127635047Y-124118714D01*
X127777904Y-124118714D01*
X127873142Y-124166333D01*
X127920761Y-124261571D01*
X127920761Y-124785380D01*
X128349333Y-124737761D02*
X128444571Y-124785380D01*
X128635047Y-124785380D01*
X128730285Y-124737761D01*
X128777904Y-124642523D01*
X128777904Y-124594904D01*
X128730285Y-124499666D01*
X128635047Y-124452047D01*
X128492190Y-124452047D01*
X128396952Y-124404428D01*
X128349333Y-124309190D01*
X128349333Y-124261571D01*
X128396952Y-124166333D01*
X128492190Y-124118714D01*
X128635047Y-124118714D01*
X128730285Y-124166333D01*
X129635047Y-124737761D02*
X129539809Y-124785380D01*
X129349333Y-124785380D01*
X129254095Y-124737761D01*
X129206476Y-124690142D01*
X129158857Y-124594904D01*
X129158857Y-124309190D01*
X129206476Y-124213952D01*
X129254095Y-124166333D01*
X129349333Y-124118714D01*
X129539809Y-124118714D01*
X129635047Y-124166333D01*
X130063619Y-124785380D02*
X130063619Y-123785380D01*
X130492190Y-124785380D02*
X130492190Y-124261571D01*
X130444571Y-124166333D01*
X130349333Y-124118714D01*
X130206476Y-124118714D01*
X130111238Y-124166333D01*
X130063619Y-124213952D01*
X131111238Y-124785380D02*
X131016000Y-124737761D01*
X130968380Y-124642523D01*
X130968380Y-123785380D01*
X131920761Y-124118714D02*
X131920761Y-124785380D01*
X131492190Y-124118714D02*
X131492190Y-124642523D01*
X131539809Y-124737761D01*
X131635047Y-124785380D01*
X131777904Y-124785380D01*
X131873142Y-124737761D01*
X131920761Y-124690142D01*
X132349333Y-124737761D02*
X132444571Y-124785380D01*
X132635047Y-124785380D01*
X132730285Y-124737761D01*
X132777904Y-124642523D01*
X132777904Y-124594904D01*
X132730285Y-124499666D01*
X132635047Y-124452047D01*
X132492190Y-124452047D01*
X132396952Y-124404428D01*
X132349333Y-124309190D01*
X132349333Y-124261571D01*
X132396952Y-124166333D01*
X132492190Y-124118714D01*
X132635047Y-124118714D01*
X132730285Y-124166333D01*
X133158857Y-124737761D02*
X133254095Y-124785380D01*
X133444571Y-124785380D01*
X133539809Y-124737761D01*
X133587428Y-124642523D01*
X133587428Y-124594904D01*
X133539809Y-124499666D01*
X133444571Y-124452047D01*
X133301714Y-124452047D01*
X133206476Y-124404428D01*
X133158857Y-124309190D01*
X133158857Y-124261571D01*
X133206476Y-124166333D01*
X133301714Y-124118714D01*
X133444571Y-124118714D01*
X133539809Y-124166333D01*
X136438095Y-124785380D02*
X136438095Y-123785380D01*
X136771428Y-124499666D01*
X137104761Y-123785380D01*
X137104761Y-124785380D01*
X137580952Y-124785380D02*
X137580952Y-124118714D01*
X137580952Y-123785380D02*
X137533333Y-123833000D01*
X137580952Y-123880619D01*
X137628571Y-123833000D01*
X137580952Y-123785380D01*
X137580952Y-123880619D01*
X138485714Y-124737761D02*
X138390476Y-124785380D01*
X138200000Y-124785380D01*
X138104761Y-124737761D01*
X138057142Y-124690142D01*
X138009523Y-124594904D01*
X138009523Y-124309190D01*
X138057142Y-124213952D01*
X138104761Y-124166333D01*
X138200000Y-124118714D01*
X138390476Y-124118714D01*
X138485714Y-124166333D01*
X138914285Y-124785380D02*
X138914285Y-124118714D01*
X138914285Y-124309190D02*
X138961904Y-124213952D01*
X139009523Y-124166333D01*
X139104761Y-124118714D01*
X139200000Y-124118714D01*
X139676190Y-124785380D02*
X139580952Y-124737761D01*
X139533333Y-124690142D01*
X139485714Y-124594904D01*
X139485714Y-124309190D01*
X139533333Y-124213952D01*
X139580952Y-124166333D01*
X139676190Y-124118714D01*
X139819047Y-124118714D01*
X139914285Y-124166333D01*
X139961904Y-124213952D01*
X140009523Y-124309190D01*
X140009523Y-124594904D01*
X139961904Y-124690142D01*
X139914285Y-124737761D01*
X139819047Y-124785380D01*
X139676190Y-124785380D01*
X140438095Y-123785380D02*
X140438095Y-124594904D01*
X140485714Y-124690142D01*
X140533333Y-124737761D01*
X140628571Y-124785380D01*
X140819047Y-124785380D01*
X140914285Y-124737761D01*
X140961904Y-124690142D01*
X141009523Y-124594904D01*
X141009523Y-123785380D01*
X141438095Y-124737761D02*
X141580952Y-124785380D01*
X141819047Y-124785380D01*
X141914285Y-124737761D01*
X141961904Y-124690142D01*
X142009523Y-124594904D01*
X142009523Y-124499666D01*
X141961904Y-124404428D01*
X141914285Y-124356809D01*
X141819047Y-124309190D01*
X141628571Y-124261571D01*
X141533333Y-124213952D01*
X141485714Y-124166333D01*
X141438095Y-124071095D01*
X141438095Y-123975857D01*
X141485714Y-123880619D01*
X141533333Y-123833000D01*
X141628571Y-123785380D01*
X141866666Y-123785380D01*
X142009523Y-123833000D01*
X142771428Y-124261571D02*
X142914285Y-124309190D01*
X142961904Y-124356809D01*
X143009523Y-124452047D01*
X143009523Y-124594904D01*
X142961904Y-124690142D01*
X142914285Y-124737761D01*
X142819047Y-124785380D01*
X142438095Y-124785380D01*
X142438095Y-123785380D01*
X142771428Y-123785380D01*
X142866666Y-123833000D01*
X142914285Y-123880619D01*
X142961904Y-123975857D01*
X142961904Y-124071095D01*
X142914285Y-124166333D01*
X142866666Y-124213952D01*
X142771428Y-124261571D01*
X142438095Y-124261571D01*
X128984761Y-68381571D02*
X129318095Y-68381571D01*
X129460952Y-68905380D02*
X128984761Y-68905380D01*
X128984761Y-67905380D01*
X129460952Y-67905380D01*
X129841904Y-68857761D02*
X129984761Y-68905380D01*
X130222857Y-68905380D01*
X130318095Y-68857761D01*
X130365714Y-68810142D01*
X130413333Y-68714904D01*
X130413333Y-68619666D01*
X130365714Y-68524428D01*
X130318095Y-68476809D01*
X130222857Y-68429190D01*
X130032380Y-68381571D01*
X129937142Y-68333952D01*
X129889523Y-68286333D01*
X129841904Y-68191095D01*
X129841904Y-68095857D01*
X129889523Y-68000619D01*
X129937142Y-67953000D01*
X130032380Y-67905380D01*
X130270476Y-67905380D01*
X130413333Y-67953000D01*
X130841904Y-68905380D02*
X130841904Y-67905380D01*
X131222857Y-67905380D01*
X131318095Y-67953000D01*
X131365714Y-68000619D01*
X131413333Y-68095857D01*
X131413333Y-68238714D01*
X131365714Y-68333952D01*
X131318095Y-68381571D01*
X131222857Y-68429190D01*
X130841904Y-68429190D01*
X131984761Y-68333952D02*
X131889523Y-68286333D01*
X131841904Y-68238714D01*
X131794285Y-68143476D01*
X131794285Y-68095857D01*
X131841904Y-68000619D01*
X131889523Y-67953000D01*
X131984761Y-67905380D01*
X132175238Y-67905380D01*
X132270476Y-67953000D01*
X132318095Y-68000619D01*
X132365714Y-68095857D01*
X132365714Y-68143476D01*
X132318095Y-68238714D01*
X132270476Y-68286333D01*
X132175238Y-68333952D01*
X131984761Y-68333952D01*
X131889523Y-68381571D01*
X131841904Y-68429190D01*
X131794285Y-68524428D01*
X131794285Y-68714904D01*
X131841904Y-68810142D01*
X131889523Y-68857761D01*
X131984761Y-68905380D01*
X132175238Y-68905380D01*
X132270476Y-68857761D01*
X132318095Y-68810142D01*
X132365714Y-68714904D01*
X132365714Y-68524428D01*
X132318095Y-68429190D01*
X132270476Y-68381571D01*
X132175238Y-68333952D01*
X132746666Y-68000619D02*
X132794285Y-67953000D01*
X132889523Y-67905380D01*
X133127619Y-67905380D01*
X133222857Y-67953000D01*
X133270476Y-68000619D01*
X133318095Y-68095857D01*
X133318095Y-68191095D01*
X133270476Y-68333952D01*
X132699047Y-68905380D01*
X133318095Y-68905380D01*
X134175238Y-67905380D02*
X133984761Y-67905380D01*
X133889523Y-67953000D01*
X133841904Y-68000619D01*
X133746666Y-68143476D01*
X133699047Y-68333952D01*
X133699047Y-68714904D01*
X133746666Y-68810142D01*
X133794285Y-68857761D01*
X133889523Y-68905380D01*
X134080000Y-68905380D01*
X134175238Y-68857761D01*
X134222857Y-68810142D01*
X134270476Y-68714904D01*
X134270476Y-68476809D01*
X134222857Y-68381571D01*
X134175238Y-68333952D01*
X134080000Y-68286333D01*
X133889523Y-68286333D01*
X133794285Y-68333952D01*
X133746666Y-68381571D01*
X133699047Y-68476809D01*
X135127619Y-67905380D02*
X134937142Y-67905380D01*
X134841904Y-67953000D01*
X134794285Y-68000619D01*
X134699047Y-68143476D01*
X134651428Y-68333952D01*
X134651428Y-68714904D01*
X134699047Y-68810142D01*
X134746666Y-68857761D01*
X134841904Y-68905380D01*
X135032380Y-68905380D01*
X135127619Y-68857761D01*
X135175238Y-68810142D01*
X135222857Y-68714904D01*
X135222857Y-68476809D01*
X135175238Y-68381571D01*
X135127619Y-68333952D01*
X135032380Y-68286333D01*
X134841904Y-68286333D01*
X134746666Y-68333952D01*
X134699047Y-68381571D01*
X134651428Y-68476809D01*
X147955000Y-64770000D02*
X117475000Y-64770000D01*
X147955000Y-125349000D02*
X147955000Y-64770000D01*
X147955000Y-125730000D02*
X117475000Y-125730000D01*
X117475000Y-64770000D02*
X117475000Y-125349000D01*
D11*
X120000000Y-73670000D02*
X121330000Y-73670000D01*
X121330000Y-73670000D02*
X121330000Y-75000000D01*
X121330000Y-76270000D02*
X121330000Y-119510000D01*
X118670000Y-119510000D02*
X121330000Y-119510000D01*
X118670000Y-76270000D02*
X118670000Y-119510000D01*
X118670000Y-76270000D02*
X121330000Y-76270000D01*
X136820000Y-103395000D02*
X136820000Y-102465000D01*
X136820000Y-100235000D02*
X136820000Y-101165000D01*
X136820000Y-100235000D02*
X133660000Y-100235000D01*
X136820000Y-103395000D02*
X135360000Y-103395000D01*
X130728748Y-92005000D02*
X131251252Y-92005000D01*
X130728748Y-93425000D02*
X131251252Y-93425000D01*
X145400000Y-73670000D02*
X146730000Y-73670000D01*
X146730000Y-73670000D02*
X146730000Y-75000000D01*
X146730000Y-76270000D02*
X146730000Y-119510000D01*
X144070000Y-119510000D02*
X146730000Y-119510000D01*
X144070000Y-76270000D02*
X144070000Y-119510000D01*
X144070000Y-76270000D02*
X146730000Y-76270000D01*
D10*
X113238095Y-73452380D02*
X113238095Y-72452380D01*
X113238095Y-72928571D02*
X113809523Y-72928571D01*
X113809523Y-73452380D02*
X113809523Y-72452380D01*
X114809523Y-73452380D02*
X114238095Y-73452380D01*
X114523809Y-73452380D02*
X114523809Y-72452380D01*
X114428571Y-72595238D01*
X114333333Y-72690476D01*
X114238095Y-72738095D01*
X197738095Y-106452380D02*
X197738095Y-105452380D01*
X197738095Y-105928571D02*
X198309523Y-105928571D01*
X198309523Y-106452380D02*
X198309523Y-105452380D01*
X198738095Y-105547619D02*
X198785714Y-105500000D01*
X198880952Y-105452380D01*
X199119047Y-105452380D01*
X199214285Y-105500000D01*
X199261904Y-105547619D01*
X199309523Y-105642857D01*
X199309523Y-105738095D01*
X199261904Y-105880952D01*
X198690476Y-106452380D01*
X199309523Y-106452380D01*
X197738095Y-73452380D02*
X197738095Y-72452380D01*
X197738095Y-72928571D02*
X198309523Y-72928571D01*
X198309523Y-73452380D02*
X198309523Y-72452380D01*
X198690476Y-72452380D02*
X199309523Y-72452380D01*
X198976190Y-72833333D01*
X199119047Y-72833333D01*
X199214285Y-72880952D01*
X199261904Y-72928571D01*
X199309523Y-73023809D01*
X199309523Y-73261904D01*
X199261904Y-73357142D01*
X199214285Y-73404761D01*
X199119047Y-73452380D01*
X198833333Y-73452380D01*
X198738095Y-73404761D01*
X198690476Y-73357142D01*
X113238095Y-106452380D02*
X113238095Y-105452380D01*
X113238095Y-105928571D02*
X113809523Y-105928571D01*
X113809523Y-106452380D02*
X113809523Y-105452380D01*
X114714285Y-105785714D02*
X114714285Y-106452380D01*
X114476190Y-105404761D02*
X114238095Y-106119047D01*
X114857142Y-106119047D01*
X118833333Y-72682380D02*
X118357142Y-72682380D01*
X118357142Y-71682380D01*
X119547619Y-72634761D02*
X119452380Y-72682380D01*
X119261904Y-72682380D01*
X119166666Y-72634761D01*
X119119047Y-72539523D01*
X119119047Y-72158571D01*
X119166666Y-72063333D01*
X119261904Y-72015714D01*
X119452380Y-72015714D01*
X119547619Y-72063333D01*
X119595238Y-72158571D01*
X119595238Y-72253809D01*
X119119047Y-72349047D01*
X119880952Y-72015714D02*
X120261904Y-72015714D01*
X120023809Y-72682380D02*
X120023809Y-71825238D01*
X120071428Y-71730000D01*
X120166666Y-71682380D01*
X120261904Y-71682380D01*
X120452380Y-72015714D02*
X120833333Y-72015714D01*
X120595238Y-71682380D02*
X120595238Y-72539523D01*
X120642857Y-72634761D01*
X120738095Y-72682380D01*
X120833333Y-72682380D01*
X121690476Y-72682380D02*
X121119047Y-72682380D01*
X121404761Y-72682380D02*
X121404761Y-71682380D01*
X121309523Y-71825238D01*
X121214285Y-71920476D01*
X121119047Y-71968095D01*
X135964761Y-99862619D02*
X135869523Y-99815000D01*
X135774285Y-99719761D01*
X135631428Y-99576904D01*
X135536190Y-99529285D01*
X135440952Y-99529285D01*
X135488571Y-99767380D02*
X135393333Y-99719761D01*
X135298095Y-99624523D01*
X135250476Y-99434047D01*
X135250476Y-99100714D01*
X135298095Y-98910238D01*
X135393333Y-98815000D01*
X135488571Y-98767380D01*
X135679047Y-98767380D01*
X135774285Y-98815000D01*
X135869523Y-98910238D01*
X135917142Y-99100714D01*
X135917142Y-99434047D01*
X135869523Y-99624523D01*
X135774285Y-99719761D01*
X135679047Y-99767380D01*
X135488571Y-99767380D01*
X136869523Y-99767380D02*
X136298095Y-99767380D01*
X136583809Y-99767380D02*
X136583809Y-98767380D01*
X136488571Y-98910238D01*
X136393333Y-99005476D01*
X136298095Y-99053095D01*
X130823333Y-91517380D02*
X130490000Y-91041190D01*
X130251904Y-91517380D02*
X130251904Y-90517380D01*
X130632857Y-90517380D01*
X130728095Y-90565000D01*
X130775714Y-90612619D01*
X130823333Y-90707857D01*
X130823333Y-90850714D01*
X130775714Y-90945952D01*
X130728095Y-90993571D01*
X130632857Y-91041190D01*
X130251904Y-91041190D01*
X131775714Y-91517380D02*
X131204285Y-91517380D01*
X131490000Y-91517380D02*
X131490000Y-90517380D01*
X131394761Y-90660238D01*
X131299523Y-90755476D01*
X131204285Y-90803095D01*
X143423809Y-72682380D02*
X143423809Y-72015714D01*
X143423809Y-72206190D02*
X143471428Y-72110952D01*
X143519047Y-72063333D01*
X143614285Y-72015714D01*
X143709523Y-72015714D01*
X144042857Y-72682380D02*
X144042857Y-72015714D01*
X144042857Y-71682380D02*
X143995238Y-71730000D01*
X144042857Y-71777619D01*
X144090476Y-71730000D01*
X144042857Y-71682380D01*
X144042857Y-71777619D01*
X144947619Y-72015714D02*
X144947619Y-72825238D01*
X144900000Y-72920476D01*
X144852380Y-72968095D01*
X144757142Y-73015714D01*
X144614285Y-73015714D01*
X144519047Y-72968095D01*
X144947619Y-72634761D02*
X144852380Y-72682380D01*
X144661904Y-72682380D01*
X144566666Y-72634761D01*
X144519047Y-72587142D01*
X144471428Y-72491904D01*
X144471428Y-72206190D01*
X144519047Y-72110952D01*
X144566666Y-72063333D01*
X144661904Y-72015714D01*
X144852380Y-72015714D01*
X144947619Y-72063333D01*
X145423809Y-72682380D02*
X145423809Y-71682380D01*
X145852380Y-72682380D02*
X145852380Y-72158571D01*
X145804761Y-72063333D01*
X145709523Y-72015714D01*
X145566666Y-72015714D01*
X145471428Y-72063333D01*
X145423809Y-72110952D01*
X146185714Y-72015714D02*
X146566666Y-72015714D01*
X146328571Y-71682380D02*
X146328571Y-72539523D01*
X146376190Y-72634761D01*
X146471428Y-72682380D01*
X146566666Y-72682380D01*
X147423809Y-72682380D02*
X146852380Y-72682380D01*
X147138095Y-72682380D02*
X147138095Y-71682380D01*
X147042857Y-71825238D01*
X146947619Y-71920476D01*
X146852380Y-71968095D01*
M02*
