G04 #@! TF.GenerationSoftware,KiCad,Pcbnew,(5.1.5)-3*
G04 #@! TF.CreationDate,2020-06-17T14:59:32+02:00*
G04 #@! TF.ProjectId,Tuerschild,54756572-7363-4686-996c-642e6b696361,rev?*
G04 #@! TF.SameCoordinates,Original*
G04 #@! TF.FileFunction,Copper,L1,Top*
G04 #@! TF.FilePolarity,Positive*
%FSLAX46Y46*%
G04 Gerber Fmt 4.6, Leading zero omitted, Abs format (unit mm)*
G04 Created by KiCad (PCBNEW (5.1.5)-3) date 2020-06-17 14:59:32*
%MOMM*%
%LPD*%
G04 APERTURE LIST*
%ADD10C,0.100000*%
%ADD11O,1.750000X1.200000*%
%ADD12O,1.700000X1.700000*%
%ADD13R,1.700000X1.700000*%
%ADD14R,1.900000X0.800000*%
%ADD15C,0.250000*%
G04 APERTURE END LIST*
G04 #@! TA.AperFunction,ComponentPad*
D10*
G36*
X170649505Y-100401204D02*
G01*
X170673773Y-100404804D01*
X170697572Y-100410765D01*
X170720671Y-100419030D01*
X170742850Y-100429520D01*
X170763893Y-100442132D01*
X170783599Y-100456747D01*
X170801777Y-100473223D01*
X170818253Y-100491401D01*
X170832868Y-100511107D01*
X170845480Y-100532150D01*
X170855970Y-100554329D01*
X170864235Y-100577428D01*
X170870196Y-100601227D01*
X170873796Y-100625495D01*
X170875000Y-100649999D01*
X170875000Y-101350001D01*
X170873796Y-101374505D01*
X170870196Y-101398773D01*
X170864235Y-101422572D01*
X170855970Y-101445671D01*
X170845480Y-101467850D01*
X170832868Y-101488893D01*
X170818253Y-101508599D01*
X170801777Y-101526777D01*
X170783599Y-101543253D01*
X170763893Y-101557868D01*
X170742850Y-101570480D01*
X170720671Y-101580970D01*
X170697572Y-101589235D01*
X170673773Y-101595196D01*
X170649505Y-101598796D01*
X170625001Y-101600000D01*
X169374999Y-101600000D01*
X169350495Y-101598796D01*
X169326227Y-101595196D01*
X169302428Y-101589235D01*
X169279329Y-101580970D01*
X169257150Y-101570480D01*
X169236107Y-101557868D01*
X169216401Y-101543253D01*
X169198223Y-101526777D01*
X169181747Y-101508599D01*
X169167132Y-101488893D01*
X169154520Y-101467850D01*
X169144030Y-101445671D01*
X169135765Y-101422572D01*
X169129804Y-101398773D01*
X169126204Y-101374505D01*
X169125000Y-101350001D01*
X169125000Y-100649999D01*
X169126204Y-100625495D01*
X169129804Y-100601227D01*
X169135765Y-100577428D01*
X169144030Y-100554329D01*
X169154520Y-100532150D01*
X169167132Y-100511107D01*
X169181747Y-100491401D01*
X169198223Y-100473223D01*
X169216401Y-100456747D01*
X169236107Y-100442132D01*
X169257150Y-100429520D01*
X169279329Y-100419030D01*
X169302428Y-100410765D01*
X169326227Y-100404804D01*
X169350495Y-100401204D01*
X169374999Y-100400000D01*
X170625001Y-100400000D01*
X170649505Y-100401204D01*
G37*
G04 #@! TD.AperFunction*
D11*
X170000000Y-99000000D03*
X170000000Y-97000000D03*
X170000000Y-95000000D03*
X170000000Y-93000000D03*
X170000000Y-91000000D03*
X170000000Y-89000000D03*
X170000000Y-87000000D03*
D12*
X120000000Y-118180000D03*
X120000000Y-115640000D03*
X120000000Y-113100000D03*
X120000000Y-110560000D03*
X120000000Y-108020000D03*
X120000000Y-105480000D03*
X120000000Y-102940000D03*
X120000000Y-100400000D03*
X120000000Y-97860000D03*
X120000000Y-95320000D03*
X120000000Y-92780000D03*
X120000000Y-90240000D03*
X120000000Y-87700000D03*
X120000000Y-85160000D03*
X120000000Y-82620000D03*
X120000000Y-80080000D03*
X120000000Y-77540000D03*
D13*
X120000000Y-75000000D03*
D14*
X134560000Y-100865000D03*
X134560000Y-102765000D03*
X137560000Y-101815000D03*
G04 #@! TA.AperFunction,SMDPad,CuDef*
D10*
G36*
X130314505Y-92016204D02*
G01*
X130338773Y-92019804D01*
X130362572Y-92025765D01*
X130385671Y-92034030D01*
X130407850Y-92044520D01*
X130428893Y-92057132D01*
X130448599Y-92071747D01*
X130466777Y-92088223D01*
X130483253Y-92106401D01*
X130497868Y-92126107D01*
X130510480Y-92147150D01*
X130520970Y-92169329D01*
X130529235Y-92192428D01*
X130535196Y-92216227D01*
X130538796Y-92240495D01*
X130540000Y-92264999D01*
X130540000Y-93165001D01*
X130538796Y-93189505D01*
X130535196Y-93213773D01*
X130529235Y-93237572D01*
X130520970Y-93260671D01*
X130510480Y-93282850D01*
X130497868Y-93303893D01*
X130483253Y-93323599D01*
X130466777Y-93341777D01*
X130448599Y-93358253D01*
X130428893Y-93372868D01*
X130407850Y-93385480D01*
X130385671Y-93395970D01*
X130362572Y-93404235D01*
X130338773Y-93410196D01*
X130314505Y-93413796D01*
X130290001Y-93415000D01*
X129639999Y-93415000D01*
X129615495Y-93413796D01*
X129591227Y-93410196D01*
X129567428Y-93404235D01*
X129544329Y-93395970D01*
X129522150Y-93385480D01*
X129501107Y-93372868D01*
X129481401Y-93358253D01*
X129463223Y-93341777D01*
X129446747Y-93323599D01*
X129432132Y-93303893D01*
X129419520Y-93282850D01*
X129409030Y-93260671D01*
X129400765Y-93237572D01*
X129394804Y-93213773D01*
X129391204Y-93189505D01*
X129390000Y-93165001D01*
X129390000Y-92264999D01*
X129391204Y-92240495D01*
X129394804Y-92216227D01*
X129400765Y-92192428D01*
X129409030Y-92169329D01*
X129419520Y-92147150D01*
X129432132Y-92126107D01*
X129446747Y-92106401D01*
X129463223Y-92088223D01*
X129481401Y-92071747D01*
X129501107Y-92057132D01*
X129522150Y-92044520D01*
X129544329Y-92034030D01*
X129567428Y-92025765D01*
X129591227Y-92019804D01*
X129615495Y-92016204D01*
X129639999Y-92015000D01*
X130290001Y-92015000D01*
X130314505Y-92016204D01*
G37*
G04 #@! TD.AperFunction*
G04 #@! TA.AperFunction,SMDPad,CuDef*
G36*
X132364505Y-92016204D02*
G01*
X132388773Y-92019804D01*
X132412572Y-92025765D01*
X132435671Y-92034030D01*
X132457850Y-92044520D01*
X132478893Y-92057132D01*
X132498599Y-92071747D01*
X132516777Y-92088223D01*
X132533253Y-92106401D01*
X132547868Y-92126107D01*
X132560480Y-92147150D01*
X132570970Y-92169329D01*
X132579235Y-92192428D01*
X132585196Y-92216227D01*
X132588796Y-92240495D01*
X132590000Y-92264999D01*
X132590000Y-93165001D01*
X132588796Y-93189505D01*
X132585196Y-93213773D01*
X132579235Y-93237572D01*
X132570970Y-93260671D01*
X132560480Y-93282850D01*
X132547868Y-93303893D01*
X132533253Y-93323599D01*
X132516777Y-93341777D01*
X132498599Y-93358253D01*
X132478893Y-93372868D01*
X132457850Y-93385480D01*
X132435671Y-93395970D01*
X132412572Y-93404235D01*
X132388773Y-93410196D01*
X132364505Y-93413796D01*
X132340001Y-93415000D01*
X131689999Y-93415000D01*
X131665495Y-93413796D01*
X131641227Y-93410196D01*
X131617428Y-93404235D01*
X131594329Y-93395970D01*
X131572150Y-93385480D01*
X131551107Y-93372868D01*
X131531401Y-93358253D01*
X131513223Y-93341777D01*
X131496747Y-93323599D01*
X131482132Y-93303893D01*
X131469520Y-93282850D01*
X131459030Y-93260671D01*
X131450765Y-93237572D01*
X131444804Y-93213773D01*
X131441204Y-93189505D01*
X131440000Y-93165001D01*
X131440000Y-92264999D01*
X131441204Y-92240495D01*
X131444804Y-92216227D01*
X131450765Y-92192428D01*
X131459030Y-92169329D01*
X131469520Y-92147150D01*
X131482132Y-92126107D01*
X131496747Y-92106401D01*
X131513223Y-92088223D01*
X131531401Y-92071747D01*
X131551107Y-92057132D01*
X131572150Y-92044520D01*
X131594329Y-92034030D01*
X131617428Y-92025765D01*
X131641227Y-92019804D01*
X131665495Y-92016204D01*
X131689999Y-92015000D01*
X132340001Y-92015000D01*
X132364505Y-92016204D01*
G37*
G04 #@! TD.AperFunction*
D12*
X145400000Y-118180000D03*
X145400000Y-115640000D03*
X145400000Y-113100000D03*
X145400000Y-110560000D03*
X145400000Y-108020000D03*
X145400000Y-105480000D03*
X145400000Y-102940000D03*
X145400000Y-100400000D03*
X145400000Y-97860000D03*
X145400000Y-95320000D03*
X145400000Y-92780000D03*
X145400000Y-90240000D03*
X145400000Y-87700000D03*
X145400000Y-85160000D03*
X145400000Y-82620000D03*
X145400000Y-80080000D03*
X145400000Y-77540000D03*
D13*
X145400000Y-75000000D03*
D15*
X169780000Y-92780000D02*
X170000000Y-93000000D01*
X145400000Y-92780000D02*
X169780000Y-92780000D01*
X137560000Y-101165000D02*
X137560000Y-101815000D01*
X144650010Y-94074990D02*
X137560000Y-101165000D01*
X170508171Y-94074990D02*
X144650010Y-94074990D01*
X171200010Y-93383151D02*
X170508171Y-94074990D01*
X171125000Y-89000000D02*
X171200010Y-89075010D01*
X171200010Y-89075010D02*
X171200010Y-93383151D01*
X170000000Y-89000000D02*
X171125000Y-89000000D01*
X134560000Y-103415000D02*
X134560000Y-102765000D01*
X127415000Y-110560000D02*
X134560000Y-103415000D01*
X120000000Y-110560000D02*
X127415000Y-110560000D01*
X129965000Y-93415000D02*
X129965000Y-92715000D01*
X125520000Y-97860000D02*
X129965000Y-93415000D01*
X120000000Y-97860000D02*
X125520000Y-97860000D01*
X133360000Y-100865000D02*
X134560000Y-100865000D01*
X132015000Y-99520000D02*
X133360000Y-100865000D01*
X132015000Y-92715000D02*
X132015000Y-99520000D01*
M02*
