G04 #@! TF.GenerationSoftware,KiCad,Pcbnew,(5.1.5)-3*
G04 #@! TF.CreationDate,2020-06-17T14:59:32+02:00*
G04 #@! TF.ProjectId,Tuerschild,54756572-7363-4686-996c-642e6b696361,rev?*
G04 #@! TF.SameCoordinates,Original*
G04 #@! TF.FileFunction,Copper,L2,Bot*
G04 #@! TF.FilePolarity,Positive*
%FSLAX46Y46*%
G04 Gerber Fmt 4.6, Leading zero omitted, Abs format (unit mm)*
G04 Created by KiCad (PCBNEW (5.1.5)-3) date 2020-06-17 14:59:32*
%MOMM*%
%LPD*%
G04 APERTURE LIST*
%ADD10C,0.100000*%
%ADD11O,1.750000X1.200000*%
%ADD12O,1.700000X1.700000*%
%ADD13R,1.700000X1.700000*%
%ADD14C,0.250000*%
G04 APERTURE END LIST*
G04 #@! TA.AperFunction,ComponentPad*
D10*
G36*
X170649505Y-100401204D02*
G01*
X170673773Y-100404804D01*
X170697572Y-100410765D01*
X170720671Y-100419030D01*
X170742850Y-100429520D01*
X170763893Y-100442132D01*
X170783599Y-100456747D01*
X170801777Y-100473223D01*
X170818253Y-100491401D01*
X170832868Y-100511107D01*
X170845480Y-100532150D01*
X170855970Y-100554329D01*
X170864235Y-100577428D01*
X170870196Y-100601227D01*
X170873796Y-100625495D01*
X170875000Y-100649999D01*
X170875000Y-101350001D01*
X170873796Y-101374505D01*
X170870196Y-101398773D01*
X170864235Y-101422572D01*
X170855970Y-101445671D01*
X170845480Y-101467850D01*
X170832868Y-101488893D01*
X170818253Y-101508599D01*
X170801777Y-101526777D01*
X170783599Y-101543253D01*
X170763893Y-101557868D01*
X170742850Y-101570480D01*
X170720671Y-101580970D01*
X170697572Y-101589235D01*
X170673773Y-101595196D01*
X170649505Y-101598796D01*
X170625001Y-101600000D01*
X169374999Y-101600000D01*
X169350495Y-101598796D01*
X169326227Y-101595196D01*
X169302428Y-101589235D01*
X169279329Y-101580970D01*
X169257150Y-101570480D01*
X169236107Y-101557868D01*
X169216401Y-101543253D01*
X169198223Y-101526777D01*
X169181747Y-101508599D01*
X169167132Y-101488893D01*
X169154520Y-101467850D01*
X169144030Y-101445671D01*
X169135765Y-101422572D01*
X169129804Y-101398773D01*
X169126204Y-101374505D01*
X169125000Y-101350001D01*
X169125000Y-100649999D01*
X169126204Y-100625495D01*
X169129804Y-100601227D01*
X169135765Y-100577428D01*
X169144030Y-100554329D01*
X169154520Y-100532150D01*
X169167132Y-100511107D01*
X169181747Y-100491401D01*
X169198223Y-100473223D01*
X169216401Y-100456747D01*
X169236107Y-100442132D01*
X169257150Y-100429520D01*
X169279329Y-100419030D01*
X169302428Y-100410765D01*
X169326227Y-100404804D01*
X169350495Y-100401204D01*
X169374999Y-100400000D01*
X170625001Y-100400000D01*
X170649505Y-100401204D01*
G37*
G04 #@! TD.AperFunction*
D11*
X170000000Y-99000000D03*
X170000000Y-97000000D03*
X170000000Y-95000000D03*
X170000000Y-93000000D03*
X170000000Y-91000000D03*
X170000000Y-89000000D03*
X170000000Y-87000000D03*
D12*
X120000000Y-118180000D03*
X120000000Y-115640000D03*
X120000000Y-113100000D03*
X120000000Y-110560000D03*
X120000000Y-108020000D03*
X120000000Y-105480000D03*
X120000000Y-102940000D03*
X120000000Y-100400000D03*
X120000000Y-97860000D03*
X120000000Y-95320000D03*
X120000000Y-92780000D03*
X120000000Y-90240000D03*
X120000000Y-87700000D03*
X120000000Y-85160000D03*
X120000000Y-82620000D03*
X120000000Y-80080000D03*
X120000000Y-77540000D03*
D13*
X120000000Y-75000000D03*
D12*
X145400000Y-118180000D03*
X145400000Y-115640000D03*
X145400000Y-113100000D03*
X145400000Y-110560000D03*
X145400000Y-108020000D03*
X145400000Y-105480000D03*
X145400000Y-102940000D03*
X145400000Y-100400000D03*
X145400000Y-97860000D03*
X145400000Y-95320000D03*
X145400000Y-92780000D03*
X145400000Y-90240000D03*
X145400000Y-87700000D03*
X145400000Y-85160000D03*
X145400000Y-82620000D03*
X145400000Y-80080000D03*
X145400000Y-77540000D03*
D13*
X145400000Y-75000000D03*
D14*
X169400000Y-100400000D02*
X170000000Y-101000000D01*
X145400000Y-100400000D02*
X169400000Y-100400000D01*
X168875000Y-99000000D02*
X170000000Y-99000000D01*
X166559999Y-96684999D02*
X168875000Y-99000000D01*
X128984999Y-96684999D02*
X166559999Y-96684999D01*
X120000000Y-87700000D02*
X128984999Y-96684999D01*
X168875000Y-97000000D02*
X170000000Y-97000000D01*
X120564001Y-86524999D02*
X128184001Y-94144999D01*
X119435999Y-86524999D02*
X120564001Y-86524999D01*
X166019999Y-94144999D02*
X168875000Y-97000000D01*
X118824999Y-87135999D02*
X119435999Y-86524999D01*
X118824999Y-94144999D02*
X118824999Y-87135999D01*
X128184001Y-94144999D02*
X166019999Y-94144999D01*
X120000000Y-95320000D02*
X118824999Y-94144999D01*
X165290001Y-91415001D02*
X168875000Y-95000000D01*
X128795001Y-91415001D02*
X165290001Y-91415001D01*
X168875000Y-95000000D02*
X170000000Y-95000000D01*
X120000000Y-82620000D02*
X128795001Y-91415001D01*
X168875000Y-91000000D02*
X170000000Y-91000000D01*
X130187080Y-89064999D02*
X166939999Y-89064999D01*
X121202081Y-80080000D02*
X130187080Y-89064999D01*
X166939999Y-89064999D02*
X168875000Y-91000000D01*
X120000000Y-80080000D02*
X121202081Y-80080000D01*
X171125000Y-87000000D02*
X170000000Y-87000000D01*
X171200010Y-87075010D02*
X171125000Y-87000000D01*
X171200010Y-101588180D02*
X171200010Y-87075010D01*
X158513189Y-114275001D02*
X171200010Y-101588180D01*
X121364999Y-114275001D02*
X158513189Y-114275001D01*
X120000000Y-115640000D02*
X121364999Y-114275001D01*
M02*
